# xmcd
#
# Track frame offsets:
#	183
#	24670
#	49755
#	64798
#	104873
#	127275
#	142033
#	159708
#	196208
#	213315
#	226840
#
# Disc length: 3208 seconds
# Revision: 0
# Processed by: cddbd v1.5.2PL0 Copyright (c) Steve Scherf et al.
# Submitted via: dBpowerAMP V12.0
#
DISCID=a80c860b
DTITLE=Struass - Salome - Leinsdorf
DYEAR=1968
DGENRE=Classical
TTITLE0=Wie schön ist die Prinzessin Salome
TTITLE1=Ich will nicht bleiben
TTITLE2=Du wirst das für mich tun, Narraboth
TTITLE3=Wo ist er, dessen Sündenbecher jetzt voll ist?
TTITLE4=Jokanaan! Ich bin verliebt
TTITLE5=Dein Haar ist grässlich!
TTITLE6=Tochter der Unzucht
TTITLE7=Wo ist Salome? Wo ist die Prinzessin?
TTITLE8=Salome, komm, trink Wein mit mir
TTITLE9=Wahrhaftig, Herr, es wäre besser
TTITLE10=Siehe, derTag is nahe
EXTD=
EXTT0=
EXTT1=
EXTT2=
EXTT3=
EXTT4=
EXTT5=
EXTT6=
EXTT7=
EXTT8=
EXTT9=
EXTT10=
PLAYORDER=
